<svg width="0" height="0" class="hidden">
  <symbol xmlns="http://www.w3.org/2000/svg" viewBox="0 0 24 24" id="tw">
    <title>Twitter icon</title>
    <path d="M23.954 4.569a10 10 0 01-2.825.775 4.958 4.958 0 002.163-2.723c-.951.555-2.005.959-3.127 1.184a4.92 4.92 0 00-8.384 4.482C7.691 8.094 4.066 6.13 1.64 3.161a4.822 4.822 0 00-.666 2.475c0 1.71.87 3.213 2.188 4.096a4.904 4.904 0 01-2.228-.616v.061a4.923 4.923 0 003.946 4.827 4.996 4.996 0 01-2.212.085 4.937 4.937 0 004.604 3.417 9.868 9.868 0 01-6.102 2.105c-.39 0-.779-.023-1.17-.067a13.995 13.995 0 007.557 2.209c9.054 0 13.999-7.496 13.999-13.986 0-.209 0-.42-.015-.63a9.936 9.936 0 002.46-2.548l-.047-.02z"></path>
  </symbol>

  <symbol xmlns="http://www.w3.org/2000/svg" viewBox="0 0 26 26" width="26px" height="26px" id="fb">
    <title>Facebook icon</title>
    <path d="M 7.546875 0 C 3.390625 0 0 3.390625 0 7.546875 L 0 18.453125 C 0 22.609375 3.390625 26 7.546875 26 L 18.453125 26 C 22.609375 26 26 22.609375 26 18.453125 L 26 7.546875 C 26 3.390625 22.609375 0 18.453125 0 Z M 7.546875 2 L 18.453125 2 C 21.527344 2 24 4.46875 24 7.546875 L 24 18.453125 C 24 21.527344 21.53125 24 18.453125 24 L 7.546875 24 C 4.472656 24 2 21.53125 2 18.453125 L 2 7.546875 C 2 4.472656 4.46875 2 7.546875 2 Z M 20.5 4 C 19.671875 4 19 4.671875 19 5.5 C 19 6.328125 19.671875 7 20.5 7 C 21.328125 7 22 6.328125 22 5.5 C 22 4.671875 21.328125 4 20.5 4 Z M 13 6 C 9.144531 6 6 9.144531 6 13 C 6 16.855469 9.144531 20 13 20 C 16.855469 20 20 16.855469 20 13 C 20 9.144531 16.855469 6 13 6 Z M 13 8 C 15.773438 8 18 10.226563 18 13 C 18 15.773438 15.773438 18 13 18 C 10.226563 18 8 15.773438 8 13 C 8 10.226563 10.226563 8 13 8 Z"/></svg>  </symbol>
  </symbol>
  
  <symbol xmlns="http://www.w3.org/2000/svg" viewBox="0 0 13.5 7.656" id="scroll">
    <path d="M896.125,616.651l-3.375-3.375,0.844-.844,5.906,5.907,5.906-5.977,0.844,0.844-6.75,6.82-0.844-.843Z" transform="translate(-892.75 -612.375)"/>
  </symbol>
  
  <symbol xmlns="http://www.w3.org/2000/svg" viewBox="0 0 14 15" id="inst"><text x="-.214" y="12.828" font-size="16" fill="#fff" font-family="FontAwesome"></text></symbol>


  
    <symbol xmlns="http://www.w3.org/2000/svg" viewBox="0 0 438.533 438.533" id="inbox">
    <path d="M431.398 210.987L363.444 53.388c-1.903-4.762-5.373-8.757-10.421-11.991-5.041-3.239-10.037-4.854-14.985-4.854H100.499c-4.949 0-9.945 1.615-14.987 4.854-5.042 3.234-8.52 7.229-10.422 11.991L7.137 210.987C2.378 222.598 0 234.302 0 246.102V383.72c0 4.949 1.807 9.23 5.424 12.848 3.619 3.613 7.902 5.424 12.851 5.424h401.991c4.948 0 9.229-1.811 12.847-5.424 3.614-3.617 5.421-7.898 5.421-12.848V246.102c-.001-11.8-2.373-23.504-7.136-35.115zm-139.327 26.552l-27.113 54.819h-91.367l-27.123-54.819H56.247c.193-.38.428-1.14.715-2.282.287-1.14.525-1.903.715-2.283l60.526-141.607h202.138l60.521 141.607c.194.575.431 1.335.711 2.283.288.947.524 1.707.719 2.282h-90.221z"></path>
  </symbol>
  <symbol xmlns="http://www.w3.org/2000/svg" viewBox="0 0 14 20" id="geo">
    <title>location_on</title>
    <g fill="none" fill-rule="evenodd">
      <path d="M-5-2h24v24H-5z"></path>
      <path d="M7 0C3.13 0 0 3.13 0 7c0 4.17 4.42 9.92 6.24 12.11.4.48 1.13.48 1.53 0C9.58 16.92 14 11.17 14 7c0-3.87-3.13-7-7-7zm0 9.5a2.5 2.5 0 010-5 2.5 2.5 0 010 5z" fill="#1D1D1D"></path>
    </g>
  </symbol>
  <symbol xmlns="http://www.w3.org/2000/svg" viewBox="0 0 18 18" id="phone">
    <title>phone</title>
    <g fill="none" fill-rule="evenodd">
      <path d="M-3-3h24v24H-3z"></path>
      <path d="M16.23 12.26l-2.54-.29a1.99 1.99 0 00-1.64.57l-1.84 1.84a15.045 15.045 0 01-6.59-6.59l1.85-1.85c.43-.43.64-1.03.57-1.64l-.29-2.52A2.001 2.001 0 003.76.01H2.03C.9.01-.04.95.03 2.08c.53 8.54 7.36 15.36 15.89 15.89 1.13.07 2.07-.87 2.07-2v-1.73c.01-1.01-.75-1.86-1.76-1.98z" fill="#1D1D1D"></path>
    </g>
  </symbol>
  <symbol xmlns="http://www.w3.org/2000/svg" viewBox="0 0 24 24" id="clock">
    <path d="M15 11h-2V7a1 1 0 00-2 0v5a1 1 0 001 1h3a1 1 0 000-2zm-3-9a10 10 0 1010 10A10 10 0 0012 2zm0 18a8 8 0 118-8 8 8 0 01-8 8z"></path>
  </symbol>
  
</svg>